<?xml version="1.0" encoding="utf-8"?>
<!-- Generator: Adobe Illustrator 18.0.0, SVG Export Plug-In . SVG Version: 6.00 Build 0)  -->
<!DOCTYPE svg PUBLIC "-//W3C//DTD SVG 1.1//EN" "http://www.w3.org/Graphics/SVG/1.1/DTD/svg11.dtd">
<svg version="1.1" xmlns="http://www.w3.org/2000/svg" xmlns:xlink="http://www.w3.org/1999/xlink" x="0px" y="0px"
	 viewBox="0 0 2500 2500" enable-background="new 0 0 2500 2500" xml:space="preserve">
<g id="Layer_3">
	<path id="SVGID_x5F_1_x5F_" fill="none" d="M833.3,2956.6c465.8-230.1,1030-39.1,1260.2,426.7s39.1,1030-426.7,1260.2
		s-1030,39.1-1260.2-426.7C176.4,3750.9,367.5,3186.7,833.3,2956.6z"/>
	<text fill="#FFFFFF" font-family="'LucidaBright'" font-size="170">	<textPath  xlink:href="#SVGID_x5F_1_x5F_" startOffset="76.4627%">
International Institute of Management &amp; technology	</textPath>
</text>
</g>
<g id="Layer_1">
	<g>
		<circle fill="#003399" cx="1250" cy="1250" r="1176.7"/>
		<path fill="#FFFFFF" d="M1261,2066.7c-450.3,6.1-821.6-355.3-827.7-805.7S788.7,439.4,1239,433.3s821.6,355.3,827.7,805.7
			C2072.8,1689.3,1711.3,2060.6,1261,2066.7L1261,2066.7z"/>
		<path fill="#003399" d="M1260.4,2022.7c-426.1,5.7-777.4-336.2-783.1-762.3c-5.7-426.1,336.2-777.4,762.3-783.1
			c426.1-5.7,777.4,336.2,783.1,762.3C2028.4,1665.6,1686.5,2016.9,1260.4,2022.7L1260.4,2022.7z"/>
		<g>
			<path fill="#FFFFFF" d="M826,2096l2.2-4.7l43.6,20.4l-2.2,4.7l-1.5-0.6c-6.2-2.4-10.3-3.3-12-2.5c-1.8,0.8-4.2,4.6-7.4,11.3
				l-33.9,72.3c-3.2,6.8-4.5,11.1-4,12.9c0.5,1.8,3.7,4.4,9.6,7.6l1.4,0.8l-2.2,4.7l-43.6-20.4l2.2-4.7l1.5,0.5
				c6.3,2.5,10.3,3.3,12,2.5c1.7-0.8,4.2-4.6,7.3-11.3l33.9-72.3c3.2-6.8,4.5-11.1,4-12.9c-0.5-1.8-3.7-4.4-9.6-7.7L826,2096z"/>
			<path fill="#FFFFFF" d="M740.4,2039.9l11.7,126.4l40.5-68.7c3.8-6.5,5.6-10.6,5.2-12.5c-0.3-1.8-3.3-4.7-8.9-8.6l-1.2-0.8
				l2.6-4.4l33.1,19.5l-2.6,4.4l-1.3-0.7c-6.1-3-10.1-4.2-11.8-3.6c-1.8,0.6-4.6,4.1-8.4,10.6l-40.5,68.8
				c-3.8,6.5-5.6,10.7-5.2,12.5c0.3,1.8,3.3,4.6,8.9,8.5l1.3,0.9l-2.6,4.4l-24-14.1l-10.3-116.8l-37.5,63.6
				c-3.8,6.5-5.5,10.6-5.2,12.5c0.3,1.9,3.3,4.7,8.9,8.5l1.2,0.9l-2.6,4.4l-33-19.4l2.6-4.4l1.4,0.7c6,3,9.9,4.3,11.7,3.6
				c1.8-0.6,4.6-4.1,8.4-10.6l52.3-88.7L740.4,2039.9z"/>
			<path fill="#FFFFFF" d="M611,2092.3l15.5,12c3.6,2.8,7,5.1,10,6.8c2,1.1,4.1,0.2,6.4-2.8c1.7-2.2,3.3-4.1,4.6-5.7l1.1-1.3
				l6.9,5.3l-13.7,17.8l-83.5-64.4l13.7-17.8l6.9,5.3l-0.9,1.4c-1.1,1.7-2.5,3.7-4.3,5.9c-2.3,3-2.7,5.3-1.1,6.9
				c2.5,2.5,5.5,5.2,9.1,7.9l15.5,12l57.8-75c4.5-5.8,6.7-9.8,6.6-11.8c-0.1-2.1-2.6-5.2-7.7-9.5l-2.8-2.2l3.1-4.1l41.4,31.9
				l-3.1,4.1l-2.9-2.1c-5.4-3.8-9.1-5.4-11.1-5c-2,0.5-5.2,3.6-9.7,9.4L611,2092.3z"/>
			<path fill="#FFFFFF" d="M566.5,1898.4l63.9,61.3l-3.6,3.7l-1.2-1c-5.1-4.3-8.7-6.4-10.6-6.2c-1.9,0.2-5.5,3-10.6,8.4l-55.3,57.6
				c-5.2,5.4-7.8,9-7.9,10.9c-0.1,1.9,2.1,5.3,6.6,10.3l1,1.2l-3.6,3.7l-60.6-58.2l14.9-15.5l6.6,6.4l-1,1.3
				c-5,5.8-7.4,9.2-7.3,10.1c0.1,0.9,3.1,4.2,9,9.9l19.3,18.6l34-35.5l-16.3-15.5c-3.6-3.4-6-5.4-7.2-5.8c-1.2-0.4-3.5,1-6.9,4.3
				l-1.1,1l-4.8-4.6l18.7-19.5l4.8,4.6l-1,1.1c-2.7,3.2-4,5.4-3.7,6.8c0.3,1.4,2.2,3.8,5.8,7.2l16.2,15.6l27-28.1
				c4.4-4.6,6.7-8,6.7-10.2c0-2.2-2.3-5.5-6.9-9.9l-9.5-9.1c-7-6.7-11.4-10.2-13-10.5c-1.6-0.2-5.1,2.1-10.5,7.1l-1.1,1l-6.6-6.4
				L566.5,1898.4z"/>
			<path fill="#FFFFFF" d="M500.5,1905l25-20.9c5.7-4.8,8.8-8.1,9.2-9.9c0.4-1.8-1-5-4.3-9.6l-0.9-1.3l4-3.3l29.5,35.3l-4,3.3
				l-1.1-1.2c-4.6-4.9-7.9-7.3-9.8-7.3c-1.9,0-5.8,2.4-11.5,7.2l-61.3,51.2c-5.7,4.8-8.8,8.1-9.1,10c-0.3,1.9,1.5,5.5,5.5,10.9
				l0.9,1.3l-4,3.3l-18.9-22.6l-9.9-11.2l-4.4-5c-16.2-19.4-16.4-35.8-0.5-49c13.2-11,27.4-12,42.6-2.8l12.5-41.5
				c2.5-9,3.8-14.6,3.9-16.8c0.1-2.2-0.6-4.3-2.2-6.4c-0.4-0.7-1.5-2.2-3.3-4.5l-1-1.3l4-3.3l20.1,24l-20.2,60.3L500.5,1905z
				 M496.2,1908.5l-3.9-4.7c-13.8-16.5-28.6-18.2-44.3-5c-7.5,6.2-11.5,12.2-12,17.9c-0.5,5.7,2.3,12.3,8.5,19.7l7.5,9L496.2,1908.5
				z"/>
			<path fill="#FFFFFF" d="M440,1726.7l-46.6,118l67.2-43.1c6.3-4.1,9.8-7,10.3-8.8c0.5-1.8-0.8-5.7-4.1-11.7l-0.7-1.3l4.3-2.8
				l20.7,32.4l-4.3,2.8l-0.9-1.2c-4.1-5.5-7.1-8.3-8.9-8.6s-5.9,1.6-12.3,5.7l-67.2,43.1c-6.3,4.1-9.8,7-10.3,8.8
				c-0.5,1.8,0.8,5.6,4.1,11.6l0.7,1.4l-4.3,2.8l-15-23.4l43.5-108.9l-62.2,39.9c-6.3,4-9.7,7-10.3,8.8c-0.5,1.8,0.8,5.7,4.1,11.6
				l0.7,1.3l-4.3,2.8l-20.7-32.2l4.3-2.8l1,1.2c4,5.4,7,8.3,8.8,8.5c1.9,0.3,5.9-1.6,12.2-5.7l86.7-55.6L440,1726.7z"/>
			<path fill="#FFFFFF" d="M378.3,1696.3l17.8-0.5c7-0.2,11.5-0.8,13.4-1.7c2.1-1,1.7-4.7-1.4-11.2l-0.6-1.2l4.7-2.2l13.5,28.9
				l-4.7,2.2l-0.8-1.5c-2.2-4.2-3.9-6.5-5.2-7c-1.3-0.4-6.6-0.5-16.1-0.2l-111.6,4.2l-2.4-5.2l75.6-82.8c5.3-6.2,8.3-10.2,9-12.1
				c0.7-1.8,0.3-4.7-1.2-8.4l-0.7-1.8l4.7-2.2l19.3,41.3l-4.7,2.2l-0.6-1.4c-3.3-7-5.9-10.1-7.9-9.1c-3,1.4-6.4,4.3-10.3,8.7
				l-11.9,13.1L378.3,1696.3z M371.1,1696.7l-19.9-42.7l-40.8,44.8L371.1,1696.7z"/>
			<path fill="#FFFFFF" d="M248.4,1588l6.1,18.6c1.4,4.4,2.9,8.1,4.5,11.2c1,2.1,3.3,2.5,6.9,1.3c2.7-0.9,5-1.6,7-2.1l1.6-0.4
				l2.7,8.3l-21.4,7l-33-100.1l21.4-7l2.7,8.3l-1.6,0.6c-1.9,0.8-4.2,1.6-6.9,2.5c-3.6,1.2-5.2,2.9-4.8,5.1c0.6,3.5,1.6,7.3,3,11.6
				l6.1,18.6l90-29.6c7-2.3,11-4.3,12.1-6.1c1.1-1.8,0.8-5.8-1-12.2l-1-3.4l4.9-1.6l16.3,49.6l-4.9,1.6l-1.2-3.4
				c-2.4-6.2-4.5-9.6-6.4-10.3c-1.9-0.7-6.4,0-13.3,2.3L248.4,1588z"/>
			<path fill="#FFFFFF" d="M323.4,1442.7l5-1.2l11,46.9l-5,1.2l-0.4-1.5c-2-6.4-3.8-10.1-5.5-10.9c-1.7-0.9-6.2-0.5-13.5,1.3
				l-77.7,18.3c-7.3,1.7-11.5,3.3-12.6,4.9c-1.1,1.5-1.1,5.6,0,12.2l0.2,1.6l-5,1.2l-11-46.9l5-1.2l0.5,1.5c2,6.5,3.8,10.1,5.5,11
				c1.7,0.9,6.2,0.4,13.4-1.3l77.7-18.3c7.3-1.7,11.5-3.3,12.6-4.9c1.1-1.5,1.2-5.6,0-12.3L323.4,1442.7z"/>
			<path fill="#FFFFFF" d="M320.4,1375.1c2.4,17.7-1.4,32.4-11.5,44.1c-10,11.7-24.9,18.9-44.7,21.6c-19.8,2.7-36.1-0.3-48.9-9
				c-12.8-8.6-20.4-21.8-22.7-39.5c-2.4-17.7,1.4-32.4,11.5-44.1c10-11.7,25-18.9,44.7-21.6c19.8-2.7,36.1,0.3,48.9,9
				S318.1,1357.4,320.4,1375.1z M314.9,1375.8c-1.6-12.1-8.1-20.9-19.3-26.4c-11.2-5.5-26-7-44.3-4.5c-18.3,2.5-32.1,7.8-41.5,16.1
				c-9.4,8.3-13.3,18.5-11.7,30.6c1.6,12.1,8.1,20.9,19.4,26.4c11.3,5.5,26,7,44.3,4.5c18.3-2.5,32.1-7.8,41.5-16.1
				C312.7,1398.1,316.6,1388,314.9,1375.8z"/>
			<path fill="#FFFFFF" d="M310.7,1213l-103,74.1l79.8,0.1c7.5,0,12-0.6,13.4-1.8c1.4-1.2,2.4-5.2,2.9-12l0.1-1.5l5.1,0l0,38.4
				l-5.1,0l-0.1-1.5c-0.5-6.8-1.4-10.8-2.9-12c-1.4-1.2-5.9-1.8-13.4-1.8l-79.9-0.1c-7.5,0-12,0.6-13.4,1.8c-1.4,1.2-2.3,5.2-2.8,12
				l-0.2,1.6l-5.1,0l0-27.8l95.4-68.1l-73.9-0.1c-7.5,0-11.9,0.6-13.4,1.9c-1.4,1.2-2.4,5.2-2.8,12l-0.2,1.5l-5.1,0l0-38.3l5.1,0
				l0.2,1.6c0.4,6.8,1.4,10.7,2.8,12c1.4,1.2,5.9,1.8,13.4,1.8l103,0.1L310.7,1213z"/>
			<path fill="#FFFFFF" d="M275.4,1154.1l15.3,9.2c6,3.6,10.1,5.5,12.2,5.8c2.3,0.3,3.9-3.1,4.9-10.2l0.2-1.3l5.1,0.7l-4.2,31.6
				l-5.1-0.7l0.1-1.7c0.4-4.7,0.2-7.6-0.6-8.7c-0.8-1-5.3-4-13.4-8.8l-96.3-56.5l0.8-5.7l108.3-29.1c7.8-2.4,12.5-4.1,14.1-5.3
				c1.6-1.2,2.7-3.8,3.5-7.7l0.3-1.9l5.1,0.7l-6,45.2l-5.1-0.7l0.2-1.5c1-7.7,0.4-11.7-1.8-12c-3.2-0.4-7.7,0.2-13.4,1.7l-17.1,4.7
				L275.4,1154.1z M269.1,1150.6l6.2-46.7l-58.5,15.8L269.1,1150.6z"/>
			<path fill="#FFFFFF" d="M348.3,978.2l-21.6,86.1l-5-1.3l0.3-1.5c1.2-6.6,1.2-10.7,0.1-12.3c-1.1-1.6-5.3-3.3-12.5-5.1l-77.5-19.4
				c-7.3-1.8-11.7-2.3-13.4-1.4c-1.7,0.9-3.6,4.5-5.6,10.9l-0.5,1.5l-5-1.3l11.7-46.7l5,1.3l-0.2,1.6c-1.2,6.7-1.3,10.7-0.2,12.3
				c1.1,1.5,5.3,3.2,12.5,5l77.5,19.4c7.1,1.8,11.4,2.3,12.7,1.5c1.3-0.8,2.9-4.8,4.7-12l3.1-12.3c2.4-9.7,3.3-15.4,2.5-17.1
				c-0.7-1.7-5.1-3.7-13-6.1l-1.6-0.5l2.1-8.5L348.3,978.2z"/>
			<path fill="#FFFFFF" d="M378.9,880.6l4.8,1.9L366,927.2l-4.8-1.9l0.5-1.5c2-6.4,2.6-10.4,1.7-12.1c-0.9-1.7-4.8-3.9-11.8-6.7
				l-74.3-29.3c-7-2.7-11.3-3.8-13.1-3.2s-4.1,4-7,10.1l-0.7,1.4l-4.8-1.9l17.7-44.8l4.8,1.9l-0.4,1.5c-2.1,6.4-2.7,10.5-1.8,12.2
				c0.9,1.7,4.8,3.9,11.8,6.6l74.3,29.3c7,2.7,11.3,3.8,13.1,3.2c1.8-0.6,4.2-4,7-10.1L378.9,880.6z"/>
			<path fill="#FFFFFF" d="M429.5,791.6l-125.4,19.6l71.1,36.1c6.7,3.4,11,4.9,12.8,4.4c1.8-0.4,4.5-3.6,8-9.4l0.8-1.3l4.6,2.3
				L384,877.6l-4.6-2.3l0.6-1.4c2.6-6.3,3.6-10.3,2.9-12c-0.7-1.7-4.4-4.3-11.1-7.7l-71.2-36.1c-6.7-3.4-11-4.9-12.8-4.4
				c-1.8,0.4-4.4,3.6-7.9,9.4l-0.9,1.3l-4.6-2.3l12.6-24.8l115.9-17.6L337,746.2c-6.7-3.4-10.9-4.8-12.8-4.4
				c-1.8,0.5-4.5,3.6-7.9,9.4l-0.8,1.3l-4.6-2.3l17.3-34.1l4.6,2.3l-0.6,1.5c-2.7,6.2-3.6,10.2-2.9,11.9c0.7,1.7,4.4,4.3,11.1,7.7
				l91.9,46.6L429.5,791.6z"/>
			<path fill="#FFFFFF" d="M442.8,760.6l-19.8-13l4.8-7.3l1.3,0.8c2.4,1.4,4.2,2.5,5.3,3.2c3.7,2.4,7.4,2.7,11.2,0.9
				c6.3-2.9,11.4-7.3,15.3-13.2c4-6.1,5.5-12.1,4.3-17.9c-1.2-5.8-4.9-10.7-11-14.7c-5.2-3.4-10-5-14.5-4.8
				c-4.5,0.2-10.7,2.3-18.5,6.4l-9,4.5c-19.2,9.9-34.1,11.3-44.6,4.4c-7.9-5.2-12.6-12.3-14-21.4c-1.4-9.1,0.6-17.9,6.3-26.4
				c2.4-3.7,5.4-7.5,9-11.3c3.6-3.8,7.7-7.8,12.4-11.7l18.2,12l-5.1,7.7l-1.2-0.7c-2.6-1.5-4.5-2.6-5.6-3.4c-3.9-2.6-7.7-3-11.3-1.5
				c-3.7,1.6-7.4,5.3-11.3,11.3c-3.3,5-4.3,10-3.1,15.3c1.2,5.2,4.5,9.6,9.8,13.1c4.5,3,9,4.4,13.3,4.2c4.4-0.2,9.9-2,16.7-5.5
				l9-4.5c12.4-6.3,21.8-9.8,28.4-10.5c6.6-0.7,13.1,1,19.5,5.3c8.5,5.6,13.6,13.5,15,23.6c1.5,10.1-0.9,19.9-7.2,29.4
				c-3.7,5.5-7.5,10.5-11.4,14.8C451,753.8,447,757.5,442.8,760.6z"/>
			<path fill="#FFFFFF" d="M428.3,584.8l-12.4,15.1c-2.9,3.5-5.3,6.8-7.1,9.8c-1.2,2-0.3,4.1,2.6,6.5c2.2,1.8,4,3.4,5.5,4.8l1.2,1.1
				l-5.5,6.7l-17.4-14.3l67-81.4l17.4,14.3l-5.5,6.7l-1.3-1c-1.7-1.2-3.6-2.7-5.8-4.4c-2.9-2.4-5.2-2.8-6.9-1.3
				c-2.6,2.4-5.3,5.3-8.2,8.8l-12.5,15.1l73.1,60.2c5.7,4.7,9.6,7,11.6,7s5.3-2.5,9.8-7.3l2.3-2.7l4,3.3L507.1,672l-4-3.3l2.2-2.8
				c3.9-5.3,5.7-8.9,5.3-11c-0.4-2-3.4-5.3-9.1-10L428.3,584.8z"/>
			<path fill="#FFFFFF" d="M591.2,570.5l3.7,3.6l-33.7,34.4l-3.7-3.6l1-1.2c4.4-5.1,6.5-8.6,6.3-10.5c-0.2-1.9-2.9-5.5-8.3-10.7
				l-57-55.9c-5.3-5.2-9-7.9-10.9-8c-1.9-0.1-5.3,2.1-10.3,6.5l-1.2,1l-3.7-3.6l33.7-34.4l3.7,3.6l-1,1.2c-4.4,5.1-6.5,8.6-6.4,10.5
				c0.2,1.9,2.9,5.4,8.3,10.7l57,55.9c5.3,5.2,9,7.9,10.9,8.1c1.9,0.2,5.4-2,10.4-6.5L591.2,570.5z"/>
			<path fill="#FFFFFF" d="M555.3,453.1l-14.9,12.7c-3.5,3-6.4,5.8-8.7,8.4c-1.5,1.7-1,4,1.4,6.9c1.8,2.1,3.4,4,4.6,5.7l1,1.3
				l-6.6,5.7l-14.6-17.1l80.1-68.6l14.6,17.1l-6.6,5.7l-1.1-1.2c-1.5-1.4-3.1-3.2-4.9-5.4c-2.4-2.9-4.6-3.7-6.5-2.5
				c-3,1.9-6.2,4.3-9.6,7.2l-14.9,12.8l61.6,71.9c4.8,5.6,8.2,8.6,10.2,8.9c2,0.3,5.7-1.5,10.9-5.5l2.8-2.3l3.3,3.9l-39.7,34
				l-3.3-3.9l2.7-2.4c4.8-4.5,7.2-7.8,7.1-9.9c0-2-2.5-5.9-7.2-11.5L555.3,453.1z"/>
			<path fill="#FFFFFF" d="M613.3,402.1l-2.8-4.3l40.3-26.8l2.8,4.3l-1.2,1c-5.4,4.1-8.3,7.1-8.5,9s1.7,5.9,5.9,12.2l29.1,43.8
				c7,10.6,11.9,17.3,14.6,20.2c2.7,2.9,6.1,5,10.2,6.4c8.3,2.8,16.9,1.3,25.8-4.6c8.3-5.5,13.3-12.5,15-20.9
				c0.9-4.7,0.7-9.1-0.8-13.1c-1.4-4-5.1-10.5-11-19.3L701.8,363c-4.1-6.2-7.1-9.6-9-10.1c-1.8-0.5-5.7,0.9-11.5,4.3l-1.3,0.7
				l-2.8-4.3l32.8-21.8l2.8,4.3l-1.2,1c-5.4,4.1-8.2,7.1-8.5,8.9c-0.2,1.8,1.8,5.9,5.9,12.2l28.5,42.9c6.3,9.5,10.4,16.8,12.3,21.9
				c1.9,5.1,2.5,10.7,1.9,16.6c-1.2,11.2-8,21-20.6,29.3c-25.3,16.8-47.1,11.6-65.2-15.6l-30.6-46.1c-4.1-6.2-7.1-9.6-9-10.1
				c-1.8-0.5-5.7,0.9-11.5,4.3L613.3,402.1z"/>
			<path fill="#FFFFFF" d="M766.4,310.2l-17.5,8.8c-4.1,2.1-7.6,4.1-10.4,6.1c-1.9,1.3-2,3.7-0.3,7c1.3,2.5,2.3,4.7,3.2,6.6l0.7,1.5
				l-7.8,3.9l-10.2-20.1l94.1-47.6l10.2,20.1l-7.8,3.9l-0.8-1.4c-1.1-1.8-2.2-3.9-3.5-6.4c-1.7-3.4-3.6-4.7-5.7-4
				c-3.3,1.1-7,2.7-11.1,4.8l-17.5,8.9l42.8,84.5c3.3,6.6,5.9,10.3,7.8,11.1c1.9,0.8,5.9-0.1,11.9-2.8l3.2-1.5l2.3,4.6l-46.6,23.6
				l-2.3-4.6l3.1-1.7c5.7-3.3,8.8-5.9,9.3-7.9c0.4-2-1-6.3-4.3-12.8L766.4,310.2z"/>
			<path fill="#FFFFFF" d="M960.6,353.7l-82.9,31.2l-1.8-4.8l1.4-0.6c6.1-2.8,9.5-5.1,10.1-6.9c0.6-1.8-0.3-6.2-3-13.2l-28.1-74.7
				c-2.6-7-4.8-11-6.5-11.9c-1.7-0.9-5.7-0.4-12.1,1.6l-1.5,0.4l-1.8-4.8l78.6-29.6l7.6,20.1l-8.6,3.2l-0.7-1.4
				c-3.1-7-5.1-10.6-6-11c-0.9-0.3-5.1,1-12.8,3.8l-25.1,9.4l17.3,46l21-8c4.7-1.8,7.4-3.1,8.3-4c0.9-0.9,0.6-3.6-0.9-8.1l-0.4-1.4
				l6.2-2.3l9.5,25.2l-6.2,2.3l-0.6-1.4c-1.7-3.8-3.2-5.9-4.5-6.3c-1.3-0.3-4.3,0.4-9,2.1l-21.1,7.9l13.7,36.4
				c2.3,6,4.4,9.5,6.4,10.4c2,0.9,5.9,0.3,11.9-2l12.3-4.6c9.1-3.4,14.1-5.8,15.1-7.2c0.9-1.4,0.3-5.6-1.9-12.5l-0.4-1.4l8.6-3.2
				L960.6,353.7z"/>
			<path fill="#FFFFFF" d="M1074.9,328.6c-17.5,3.3-32.4,0.3-44.6-9.1c-12.3-9.4-20.2-23.9-24-43.5c-3.7-19.6-1.7-36.1,6.3-49.3
				c7.9-13.2,20.7-21.5,38.2-24.9c17.5-3.3,32.4-0.3,44.6,9.1c12.3,9.4,20.2,23.9,24,43.5c3.7,19.6,1.7,36.1-6.3,49.3
				C1105.1,317,1092.4,325.3,1074.9,328.6z M1073.9,323.1c12-2.3,20.5-9.2,25.3-20.7c4.9-11.5,5.5-26.3,2.1-44.5
				c-3.5-18.1-9.6-31.6-18.3-40.6c-8.8-9-19.2-12.3-31.2-10c-12,2.3-20.5,9.2-25.3,20.8c-4.8,11.6-5.5,26.4-2.1,44.5
				c3.5,18.1,9.6,31.6,18.3,40.6C1051.4,322.1,1061.8,325.4,1073.9,323.1z"/>
			<path fill="#FFFFFF" d="M1167.9,252.7l2.7,38c0.5,6.5,1.4,10.7,2.7,12.7c1.3,1.9,3.9,2.8,7.8,2.5c0.2,0,2.4,0,6.5,0l1.6,0
				l0.4,5.1l-50.1,3.6l-0.4-5.1l1.6-0.2c6.6-0.9,10.5-2.2,11.7-3.7c1.1-1.6,1.4-6.1,0.9-13.5l-5.7-79.6c-0.5-7.5-1.5-11.9-2.8-13.2
				c-1.3-1.3-5.4-2-12.1-2l-1.6-0.1l-0.4-5.1l82.7-5.9l1.5,21.4l-9.2,0.7l-0.2-1.6c-1-7.6-1.9-11.7-2.6-12.2
				c-0.8-0.6-5.2-0.5-13.4,0l-25.7,1.8l3.6,49.8l22.4-1.6c5-0.4,8-0.8,9.1-1.4c1.1-0.6,1.6-3.2,1.5-8l0-1.5l6.6-0.5l1.9,27.1
				l-6.6,0.5l-0.2-1.6c-0.6-4.2-1.4-6.6-2.6-7.3c-1.2-0.7-4.2-0.9-9.2-0.5L1167.9,252.7z"/>
			<path fill="#FFFFFF" d="M1291.7,189.9l0.5-5.1l35.1,3.7l27,92.9l45.1-85.2l30.7,3.3l-0.5,5.1l-1.6,0c-6.7-0.3-10.8,0.2-12.1,1.5
				c-1.4,1.3-2.5,5.7-3.3,13.1l-8.4,79.4c-0.8,7.4-0.6,11.9,0.4,13.5c1.1,1.6,4.9,3,11.5,4.1l1.6,0.2l-0.5,5.1l-46.6-4.9l0.5-5.1
				l1.5,0.1c6.7,0.3,10.7-0.3,12.1-1.6c1.4-1.3,2.4-5.7,3.2-13.1l8.9-83.9l-48.4,91.5l-6.1-0.6l-27.5-100.9l-9,85.3
				c-0.8,7.4-0.6,11.9,0.4,13.5c1.1,1.6,4.9,3,11.5,4.1l1.6,0.2l-0.5,5.1l-39.6-4.2l0.5-5.1l1.6,0.1c6.7,0.3,10.8-0.3,12.1-1.6
				c1.4-1.3,2.5-5.7,3.3-13.1l8.4-79.4c0.8-7.4,0.7-11.9-0.4-13.5c-1.1-1.6-4.9-2.9-11.6-4.1L1291.7,189.9z"/>
			<path fill="#FFFFFF" d="M1456.5,292.9l-10.9,14.1c-4.2,5.6-6.6,9.4-7.1,11.5c-0.6,2.3,2.6,4.3,9.5,6l1.3,0.3l-1.3,5l-30.9-7.8
				l1.3-5l1.7,0.3c4.7,0.9,7.6,1.1,8.7,0.3c1.1-0.7,4.5-4.8,10.2-12.4l67.1-89.3l5.6,1.4l16.6,110.9c1.5,8,2.7,12.9,3.7,14.6
				c1,1.7,3.4,3.2,7.3,4.4l1.8,0.5l-1.3,5l-44.2-11.1l1.3-5l1.4,0.4c7.5,1.9,11.5,1.8,12.1-0.4c0.8-3.2,0.7-7.7-0.2-13.5l-2.7-17.5
				L1456.5,292.9z M1460.8,287l45.6,11.5l-9-59.9L1460.8,287z"/>
			<path fill="#FFFFFF" d="M1629.7,390.3l-31.2-123l-29.3,74.2c-2.8,7-3.8,11.4-3.2,13.1c0.6,1.8,4,4.1,10.1,7.1l1.4,0.6l-1.9,4.8
				l-35.7-14.1l1.9-4.8l1.4,0.5c6.5,2,10.6,2.6,12.2,1.8c1.6-0.9,3.9-4.8,6.6-11.8l29.3-74.3c2.8-7,3.9-11.4,3.2-13.1
				c-0.6-1.8-4-4.1-10.1-7l-1.4-0.7l1.9-4.8l25.9,10.2l28.3,113.7l27.1-68.7c2.8-7,3.8-11.3,3.2-13.1c-0.6-1.8-4-4.1-10.1-7
				l-1.3-0.7l1.9-4.8l35.6,14.1l-1.9,4.8l-1.5-0.4c-6.4-2.1-10.5-2.7-12.1-1.8c-1.7,0.9-3.9,4.8-6.6,11.8l-37.8,95.8L1629.7,390.3z"
				/>
			<path fill="#FFFFFF" d="M1697.5,379.1l-14.1,10.8c-5.5,4.3-8.8,7.4-9.8,9.3c-1.1,2,1.4,4.8,7.7,8.2l1.2,0.6l-2.5,4.5l-27.9-15.5
				l2.5-4.5l1.6,0.8c4.3,2.1,7,3,8.3,2.6s5.6-3.5,13.1-9.3l87.8-69l5.1,2.8l-12.6,111.4c-0.6,8.1-0.7,13.1-0.2,15
				c0.5,1.9,2.5,3.9,5.9,6.1l1.6,1l-2.5,4.5l-39.8-22.1l2.5-4.5l1.3,0.7c6.8,3.8,10.7,4.7,11.8,2.7c1.6-2.9,2.7-7.2,3.3-13.1
				l1.9-17.6L1697.5,379.1z M1703.1,374.5l41.1,22.8l6.7-60.3L1703.1,374.5z"/>
			<path fill="#FFFFFF" d="M1848.4,518.5c-15.1-6.1-27-12.4-35.7-18.8c-14.6-10.8-22.8-24.1-24.6-40c-1.7-15.8,3.3-31.7,15-47.6
				c12.1-16.4,25.7-26,40.9-28.8c15.1-2.8,30.3,1.5,45.7,12.8c5.5,4,10.5,8.4,15.1,13.1c4.6,4.7,8.8,9.8,12.6,15.2l-13.3,18
				l-7.4-5.5l0.9-1.4c0.8-1.3,1.6-2.6,2.6-3.9c3.1-4.2,3.5-9,1.1-14.4c-2.3-5.4-7.1-10.8-14.4-16.2c-10.9-8.1-22.4-10.1-34.5-6.2
				c-12,3.9-23.7,13.6-35,28.9c-10.6,14.3-15.6,28-14.9,41c0.6,13,6.8,23.8,18.5,32.4c3.6,2.7,8.8,5.3,15.5,8.1l14.3-19.4
				c4.5-6.1,6.6-10,6.5-11.9c-0.1-1.9-2.8-5-8-9.4l-1.2-1l3.1-4.1L1890,488l-3.1,4.1l-1.3-0.8c-5.8-3.6-9.6-5.3-11.4-4.9
				c-1.8,0.4-5,3.6-9.4,9.7L1848.4,518.5z"/>
			<path fill="#FFFFFF" d="M1924,591.9l-64.8-60.4l3.5-3.8l1.2,1c5.2,4.2,8.8,6.3,10.7,6s5.4-3.1,10.5-8.5l54.5-58.4
				c5.1-5.5,7.7-9.2,7.8-11.1s-2.2-5.3-6.8-10.2l-1-1.2l3.5-3.8l61.4,57.3l-14.7,15.7l-6.7-6.3l1-1.3c4.9-5.9,7.3-9.3,7.2-10.2
				c-0.1-0.9-3.1-4.2-9.1-9.8l-19.6-18.3l-33.5,35.9l16.5,15.3c3.6,3.4,6.1,5.3,7.2,5.7c1.2,0.4,3.5-1.1,6.8-4.4l1.1-1l4.9,4.5
				l-18.4,19.7l-4.9-4.5l0.9-1.1c2.7-3.2,3.9-5.5,3.6-6.8c-0.3-1.4-2.3-3.7-5.9-7.1l-16.5-15.3l-26.5,28.5
				c-4.4,4.7-6.5,8.1-6.5,10.3c0,2.2,2.4,5.5,7,9.8l9.6,8.9c7.1,6.6,11.5,10.1,13.2,10.3c1.7,0.2,5.1-2.2,10.4-7.3l1.1-1l6.7,6.3
				L1924,591.9z"/>
			<path fill="#FFFFFF" d="M2018.5,518.5l4-3.3l22.6,27.1l-45.3,85.5l91.7-29.7l19.8,23.7l-4,3.3l-1.1-1.1c-4.6-4.9-7.9-7.3-9.8-7.4
				c-1.9,0-5.7,2.3-11.5,7.1l-61.4,51.1c-5.7,4.8-8.8,8.1-9.1,10c-0.3,1.9,1.5,5.6,5.4,11l0.9,1.3l-4,3.3l-30-36l4-3.3l1,1.1
				c4.6,4.9,7.9,7.3,9.8,7.3c1.9,0,5.7-2.4,11.5-7.2l64.9-54l-98.5,32l-3.9-4.7l50.6-91.6l-65.9,54.9c-5.7,4.8-8.8,8.1-9.1,10
				c-0.3,1.9,1.5,5.6,5.4,11l0.9,1.3l-4,3.3l-25.5-30.6l4-3.3l1.1,1.2c4.6,4.9,7.9,7.3,9.8,7.3c1.9,0,5.8-2.4,11.5-7.1l61.4-51.1
				c5.8-4.8,8.8-8.1,9.1-10c0.3-1.9-1.5-5.5-5.5-11L2018.5,518.5z"/>
			<path fill="#FFFFFF" d="M2065.7,779.2l-47.7-74.6l4.3-2.8l0.9,1.3c4,5.4,6.9,8.2,8.8,8.5c1.9,0.3,6-1.6,12.3-5.6l67.3-43
				c6.3-4,9.7-7,10.3-8.8c0.5-1.8-0.8-5.7-4.1-11.5l-0.7-1.4l4.3-2.8l45.3,70.8l-18.1,11.6l-5-7.8l1.2-1c6.2-4.5,9.4-7.2,9.5-8.1
				c0.1-0.9-2-4.8-6.4-11.7l-14.4-22.6l-41.4,26.5l12.2,18.9c2.7,4.2,4.6,6.6,5.6,7.3c1.1,0.7,3.6-0.2,7.7-2.5l1.3-0.7l3.6,5.6
				l-22.7,14.5l-3.6-5.6l1.2-0.9c3.4-2.4,5.1-4.3,5.2-5.7c0.1-1.4-1.3-4.2-3.9-8.4l-12.1-19l-32.8,21c-5.4,3.5-8.4,6.3-8.9,8.4
				s1,5.9,4.4,11.2l7.1,11c5.2,8.2,8.6,12.6,10.2,13.2c1.5,0.6,5.5-0.9,11.9-4.5l1.3-0.7l5,7.8L2065.7,779.2z"/>
			<path fill="#FFFFFF" d="M2110.3,870.4l58.3-112.7l-71.2,36c-6.7,3.4-10.4,6-11.1,7.7c-0.7,1.7,0.3,5.7,2.9,12l0.6,1.4l-4.6,2.3
				l-17.4-34.3l4.6-2.3l0.7,1.3c3.5,5.8,6.2,9,8,9.4c1.8,0.4,6.1-1,12.8-4.4l71.2-36.1c6.7-3.4,10.4-6,11.2-7.7
				c0.7-1.7-0.3-5.7-2.9-11.9l-0.6-1.5l4.6-2.3l12.6,24.8L2135.7,856l65.9-33.4c6.7-3.4,10.4-6,11.1-7.7c0.7-1.8-0.3-5.7-2.9-12
				l-0.5-1.4l4.6-2.3l17.3,34.1l-4.6,2.3l-0.9-1.3c-3.4-5.8-6.1-9-7.9-9.4c-1.8-0.4-6.1,1-12.8,4.4l-91.9,46.5L2110.3,870.4z"/>
			<path fill="#FFFFFF" d="M2246.9,898.3l-6.4-18.5c-1.5-4.3-3-8.1-4.6-11.1c-1.1-2-3.4-2.4-6.9-1.2c-2.7,0.9-5,1.7-7,2.2l-1.6,0.5
				l-2.8-8.2l21.3-7.3l34.4,99.7l-21.3,7.3l-2.8-8.2l1.5-0.6c1.9-0.8,4.2-1.7,6.8-2.6c3.6-1.2,5.1-2.9,4.7-5.1
				c-0.7-3.5-1.7-7.3-3.2-11.6l-6.4-18.5l-89.5,30.9c-7,2.4-11,4.5-12,6.3c-1.1,1.8-0.7,5.8,1.2,12.2l1.1,3.4l-4.9,1.7l-17-49.4
				l4.9-1.7l1.2,3.3c2.5,6.1,4.6,9.5,6.6,10.2c1.9,0.7,6.4-0.1,13.3-2.5L2246.9,898.3z"/>
			<path fill="#FFFFFF" d="M2183.6,1128.4l7.2-9.1c-9.6-10.6-15.2-21.2-16.9-31.8c-1.8-11.4,0.4-21.7,6.7-30.8
				c6.3-9.1,14.9-14.5,25.8-16.3c18-2.9,31.9,5.4,41.7,24.7c8.7-7.8,16.5-12.3,23.6-13.5c7.6-1.2,14.4,0.5,20.3,5.1
				c5.9,4.6,9.5,11,10.9,19.2c1.4,8.6,0.3,15.9-3.3,21.8c-3.6,5.9-9.1,9.5-16.4,10.7c-13.6,2.2-25.1-5.3-34.6-22.5
				c-2.1,1.8-3.6,3.1-4.7,3.9c-10.1,8.6-22.4,20.2-36.8,34.8c8,3.7,17,4.7,27.1,3.1c4.3-0.7,6.9-1.4,7.8-2.1
				c0.9-0.7,1.2-2.2,0.8-4.6c-0.1-0.5-0.3-3-0.8-7.3l-0.2-1.6l5.1-0.8l6.2,38.4l-5.1,0.8l-0.4-1.7c-1.4-6.3-2.3-9.8-2.8-10.3
				c-0.5-0.5-2.8-0.4-6.8,0.2c-8.6,1.4-20.1-1.9-34.6-9.9c-1,1.3-2.2,2.9-3.7,4.9c-1.5,2-2.5,3.3-2.8,3.8c-2.8,3.4-4.2,6.2-4.3,8.3
				c0,0.4,0.3,4.1,0.9,11.2l0.1,1.2l-5.1,0.8L2183.6,1128.4z M2194.4,1115.1c16.9-17.8,33.4-33.4,49.6-46.8
				c-8.4-10.2-18.6-14.3-30.6-12.4c-9.8,1.6-17.4,6-23,13.3c-5.6,7.3-7.6,15.6-6.1,25C2185.6,1101.8,2188.9,1108.8,2194.4,1115.1z
				 M2252.1,1082.8c8.4,8.8,18.7,12.2,31,10.2c11.2-1.8,16.1-6.9,14.7-15.4c-1.4-8.8-7.7-12.3-18.8-10.5c-6,1-13.3,4.9-21.9,11.8
				C2256.1,1079.7,2254.4,1081,2252.1,1082.8z"/>
			<path fill="#FFFFFF" d="M2307.2,1254.9l0.3-19.6c0.1-4.6-0.1-8.6-0.6-12c-0.3-2.3-2.3-3.4-6.1-3.5c-2.8,0-5.3-0.1-7.3-0.3
				l-1.7-0.1l0.1-8.7l22.5,0.3l-1.4,105.4l-22.5-0.3l0.1-8.7l1.7-0.1c2-0.1,4.5-0.2,7.3-0.1c3.8,0.1,5.8-1,6.2-3.2
				c0.5-3.5,0.8-7.5,0.9-12l0.3-19.6l-94.7-1.3c-7.4-0.1-11.8,0.5-13.4,1.8c-1.6,1.3-2.6,5.2-3,11.8l-0.1,3.6l-5.1-0.1l0.7-52.2
				l5.1,0.1l0,3.6c0.2,6.6,1.1,10.5,2.7,11.9c1.6,1.3,6,2,13.4,2.1L2307.2,1254.9z"/>
			<path fill="#FFFFFF" d="M2178.7,1406.8l10.7-87.9l5.1,0.6l-0.1,1.6c-0.4,6.7,0.1,10.8,1.4,12.2c1.3,1.4,5.7,2.6,13.1,3.5
				l79.3,9.7c7.4,0.9,11.9,0.8,13.5-0.2c1.6-1.1,3-4.9,4.2-11.5l0.4-1.5l5.1,0.6l-10.2,83.4l-21.3-2.6l1.1-9.1l1.6,0
				c7.6,0.5,11.8,0.4,12.5-0.2c0.7-0.6,1.5-5,2.5-13.1l3.2-26.6l-48.8-6l-2.6,22.3c-0.6,4.9-0.7,8-0.3,9.2c0.4,1.2,2.9,2.2,7.5,3
				l1.5,0.3l-0.8,6.6l-26.8-3.3l0.8-6.6l1.5,0.1c4.2,0.3,6.7-0.1,7.6-1.1c0.9-1,1.7-4,2.3-9l2.7-22.3l-38.6-4.7
				c-6.4-0.8-10.4-0.5-12.2,0.8c-1.8,1.3-3,5.1-3.8,11.5l-1.6,13c-1.2,9.7-1.4,15.2-0.6,16.7c0.8,1.5,4.8,2.8,12,4.1l1.5,0.3
				l-1.1,9.1L2178.7,1406.8z"/>
			<path fill="#FFFFFF" d="M2160.9,1515c-3.7-12.3-3.8-25.6-0.5-40c4.3-18.4,13.4-31.5,27.1-39.4c13.8-7.9,30.4-9.6,49.9-5
				c19.8,4.7,33.9,13.4,42.5,26.1c8.6,12.8,10.7,28.3,6.3,46.7c-2.2,9.4-7.1,21.2-14.7,35.5l-22.9-5.4l2.3-9.9l1.6,0.3
				c1.6,0.3,3.2,0.6,4.8,0.9c5.3,1.2,10-0.2,14.2-4.4c4.2-4.2,7.3-10.5,9.3-18.9c2.9-12.1,0-23-8.7-32.6
				c-8.6-9.6-21.6-16.5-38.9-20.6c-17.3-4.1-31.9-3.1-43.6,3.1c-11.7,6.2-19.4,16.8-22.9,31.9c-2.3,9.9-1.8,21.1,1.7,33.7
				L2160.9,1515z"/>
			<path fill="#FFFFFF" d="M2197.3,1575l-36.3-13.6c-7-2.6-11.4-3.6-13.2-3c-1.8,0.6-4.1,4-6.9,10.2l-0.6,1.4l-4.8-1.8l16.9-45.1
				l4.8,1.8l-0.5,1.5c-1.9,6.4-2.4,10.5-1.5,12.2s4.9,3.8,11.9,6.5l74.8,28.1c7,2.6,11.4,3.6,13.2,3c1.8-0.7,4.1-4,6.8-10.2l0.7-1.4
				l4.8,1.8l-16.9,45.1l-4.8-1.8l0.4-1.5c2-6.5,2.5-10.5,1.6-12.2c-0.9-1.6-4.9-3.8-11.9-6.4l-31.8-11.9l-20.6,54.7l31.8,11.9
				c7,2.6,11.4,3.6,13.2,3c1.8-0.7,4.1-4.1,6.8-10.2l0.7-1.3l4.8,1.8l-16.9,45.1l-4.8-1.8l0.4-1.5c2-6.5,2.5-10.5,1.6-12.2
				c-0.9-1.6-4.9-3.8-11.9-6.4l-74.8-28.1c-7-2.6-11.4-3.6-13.2-3c-1.8,0.6-4.1,4-6.9,10.2l-0.6,1.4l-4.8-1.8l16.9-45.1l4.8,1.8
				l-0.4,1.4c-2,6.5-2.5,10.6-1.6,12.3c0.9,1.6,4.9,3.8,11.9,6.4l36.3,13.6L2197.3,1575z"/>
			<path fill="#FFFFFF" d="M2059.8,1727.3l125.8-16.8l-70.3-37.7c-6.6-3.6-10.9-5.1-12.7-4.7c-1.8,0.4-4.6,3.5-8.2,9.3l-0.8,1.3
				l-4.5-2.4l18.2-33.9l4.5,2.4l-0.6,1.4c-2.8,6.2-3.8,10.2-3.2,12c0.7,1.7,4.3,4.4,11,7.9l70.4,37.7c6.6,3.6,10.9,5.1,12.7,4.7
				c1.8-0.4,4.5-3.5,8.1-9.2l0.9-1.3l4.5,2.4l-13.1,24.5l-116.3,15l65.1,34.9c6.6,3.5,10.8,5.1,12.7,4.7c1.9-0.4,4.6-3.5,8.1-9.2
				l0.9-1.2l4.5,2.4l-18.1,33.7l-4.5-2.4l0.6-1.5c2.8-6.2,3.9-10.1,3.2-11.9c-0.7-1.8-4.3-4.4-10.9-7.9l-90.8-48.7L2059.8,1727.3z"
				/>
			<path fill="#FFFFFF" d="M2009.4,1800.4c10.4-14.4,23.3-22.5,38.7-24c15.3-1.6,31.1,3.5,47.3,15.2c16.2,11.7,25.9,25.1,29.2,40.2
				c3.3,15.1-0.3,29.8-10.7,44.3c-10.4,14.4-23.3,22.5-38.7,24c-15.3,1.6-31.1-3.5-47.3-15.2c-16.2-11.7-25.9-25.1-29.2-40.2
				C1995.4,1829.6,1999,1814.9,2009.4,1800.4z M2013.9,1803.7c-7.2,9.9-8.6,20.7-4.2,32.4c4.4,11.7,14,23,29,33.8
				c14.9,10.8,28.7,16.5,41.2,17c12.5,0.5,22.4-4.2,29.5-14.1c7.2-9.9,8.6-20.7,4.2-32.5c-4.4-11.7-14.1-23-29-33.8
				c-14.9-10.8-28.7-16.5-41.2-16.9S2021.1,1793.8,2013.9,1803.7z"/>
			<path fill="#FFFFFF" d="M1912,1920.3l60.1-65.3l3.8,3.5l-1,1.2c-4.2,5.2-6.2,8.8-6,10.7c0.2,1.9,3.1,5.4,8.6,10.4l58.8,54.1
				c5.5,5.1,9.2,7.6,11.1,7.7c1.9,0.1,5.3-2.2,10.1-6.9l1.2-1l3.8,3.5l-32.6,35.4l-3.8-3.5l0.9-1.3c4.2-5.3,6.3-8.8,6-10.7
				c-0.2-1.9-3.1-5.3-8.6-10.4l-58.8-54.1c-5.4-5-8.9-7.4-10.5-7.4c-1.6,0.1-4.9,2.8-9.9,8.3l-8.6,9.3c-6.8,7.4-10.3,12-10.4,13.8
				c-0.2,1.8,2.7,5.7,8.5,11.6l1.2,1.2l-5.9,6.4L1912,1920.3z"/>
			<path fill="#FFFFFF" d="M1861.3,1961.4c13.5-11.6,27.9-16.4,43.2-14.4c15.3,2,29.4,10.6,42.5,25.8c13,15.2,19.4,30.4,19.1,45.9
				c-0.3,15.4-7.2,28.9-20.7,40.6c-13.5,11.6-27.9,16.4-43.2,14.4c-15.3-2-29.4-10.6-42.5-25.8c-13-15.2-19.4-30.4-19.1-45.9
				C1840.9,1986.5,1847.8,1973,1861.3,1961.4z M1865,1965.6c-9.3,8-13.2,18.2-11.6,30.6c1.5,12.4,8.3,25.6,20.3,39.6
				s24,22.7,36.1,26.1c12.1,3.4,22.7,1.1,32-6.8c9.3-8,13.2-18.2,11.6-30.6c-1.5-12.4-8.3-25.6-20.3-39.6c-12-14-24-22.7-36.1-26.1
				C1884.9,1955.3,1874.2,1957.6,1865,1965.6z"/>
			<path fill="#FFFFFF" d="M1727,2065.7c11-12,21.1-20.9,30.2-26.8c15.3-9.9,30.6-12.9,46-9c15.4,3.9,28.5,14.2,39.3,30.7
				c11.1,17.1,15.4,33.2,12.7,48.4c-2.7,15.1-12,27.9-28,38.3c-5.7,3.7-11.6,6.9-17.6,9.6c-6,2.7-12.3,4.8-18.6,6.5l-12.2-18.7
				l7.7-5l1,1.3c0.9,1.2,1.9,2.5,2.8,3.8c2.8,4.4,7.2,6.4,13.1,6.1c5.9-0.3,12.6-2.9,20.2-7.9c11.4-7.4,17.4-17.5,17.9-30.1
				s-4.4-27-14.8-42.9c-9.7-14.9-20.8-24.4-33.1-28.3c-12.4-4-24.7-2-36.9,6c-3.8,2.4-8.1,6.3-13,11.7l13.2,20.2
				c4.1,6.3,7.1,9.7,8.8,10.3c1.8,0.5,5.7-0.9,11.6-4.2l1.3-0.7l2.8,4.3l-40.4,26.2l-2.8-4.3l1.2-0.9c5.4-4.1,8.3-7.1,8.5-9
				c0.3-1.8-1.7-5.9-5.8-12.2L1727,2065.7z"/>
			<path fill="#FFFFFF" d="M1696.3,2139.5l46,28.7c9.7,6,15,9.1,15.8,9.4c0.9,0.2,3.6-0.7,8.2-2.8l1.6-0.6l2.3,4.6l-42.5,21.5
				l-2.3-4.6l1.5-0.8c7-3.5,10.2-6.2,9.4-7.8c-0.6-1.5-4.8-4.6-12.5-9.5l-38-24.2l-4,45.3c-0.8,9-0.8,14.3,0,15.9
				c0.8,1.7,4.7,0.8,11.6-2.7l1.3-0.7l2.3,4.6l-29.7,15l-2.3-4.6l1.3-0.9c4.6-2.7,7.2-4.6,7.6-5.6c0.4-1,1.2-7,2.2-18l4.6-54.3
				l-14.9-29.4c-3.4-6.7-5.9-10.4-7.6-11.2c-1.7-0.7-5.7,0.2-12,2.9l-1.4,0.6l-2.3-4.6l43-21.7l2.3,4.6l-1.3,0.7
				c-5.9,3.5-9.1,6.2-9.5,8c-0.4,1.8,1.1,6.1,4.5,12.8L1696.3,2139.5z"/>
		</g>
		<path fill="#FFFFFF" d="M1260.2,2008.6c-418.3,5.6-763.2-330.1-768.8-748.3c-5.6-418.3,330.1-763.2,748.3-768.8
			c418.3-5.6,763.2,330.1,768.8,748.3S1678.5,2002.9,1260.2,2008.6L1260.2,2008.6z"/>
		<path fill="#003399" d="M1242.5,697.4c0,0,272.6,162.7,502.1,39.4c0,0-84.7,297.5-14.3,651.9c59.5,299.7-223.7,548.5-471.2,535.1
			c-247,20.1-536.9-221-485.5-522.2c60.8-356.2-31.9-651.3-31.9-651.3C974.4,867.4,1242.5,697.4,1242.5,697.4z"/>
		<path fill="#003399" d="M1223.9,769.3c0.1-0.1-0.4-0.1,0.6-0.2l7.1,523.1l-398.2,5.4c-0.2,2-0.5,4.4-0.7,6.8
			c0.2-2.5,0.5-5.1,0.7-7.6c26-276.4-41.2-491.1-41.2-491.1C966,893.2,1162,802.7,1223.9,769.3z"/>
		<path fill="#FFFFFF" d="M1667.7,1285.7c0,0.1,0,0.6,0,0.6l-398.2,5.4l-7.1-523.1c1,0,0.5,0.1,0.6,0.2
			c62.8,31.8,261.1,117,432.6,24.9C1695.7,793.6,1634.3,1010.2,1667.7,1285.7z"/>
		<path fill="#FFFFFF" d="M829,1336.7l403.1-5.4l7.2,533l-1,0c-217.9,4.9-462.6-208.2-417.6-471.6c3.2-18.9,6-37.4,8.3-55.8
			C829,1336.7,829,1336.7,829,1336.7z"/>
		<path fill="#003399" d="M1278.3,1863.7l-1,0l-7.2-533l403.1-5.4c0,0,0,0,0,0.1c2.8,18.4,6.1,36.9,9.8,55.7
			C1735,1643.2,1496.3,1862.7,1278.3,1863.7z"/>
		<g>
			<path fill="#003399" d="M1495.4,947.1l0,2.3c-6,0.1-11,1.8-15.1,5.2c-4.1,3.4-6.1,9-6,16.7l2,151.3c0.1,7.7,2.4,13.2,6.9,16.6
				c4.5,3.4,9.4,5.1,14.8,5l0,2.2l-63.2,0.9l0-2.2c5.8-0.1,10.7-1.8,14.9-5.3c4.1-3.4,6.2-9.1,6.1-16.9l-2-151.3
				c-0.1-8.3-2.3-14-6.5-17c-4.2-3-9.2-4.5-15-4.4l0-2.3L1495.4,947.1z"/>
		</g>
		<g>
			<path fill="#FFFFFF" d="M1059.8,953l0,2.3c-6,0.1-11,1.8-15.1,5.2c-4.1,3.4-6.1,9-6,16.7l2,151.3c0.1,7.7,2.4,13.2,6.9,16.6
				c4.5,3.4,9.4,5.1,14.8,5l0,2.2l-63.2,0.9l0-2.2c5.8-0.1,10.7-1.8,14.9-5.3c4.1-3.4,6.2-9.1,6.1-16.9l-2-151.3
				c-0.1-8.3-2.3-14-6.5-17c-4.2-3-9.2-4.5-15-4.4l0-2.3L1059.8,953z"/>
		</g>
		<g>
			<g>
				<path fill="#003399" d="M1163.7,1450.1l0,2.3c-3.8,0.5-6.5,0.9-8.1,1.3c-1.6,0.3-3.4,1.3-5.4,2.8c-3,2.4-4.9,4.6-5.7,6.7
					c-0.7,2.1-1.2,5.7-1.3,10.8c-0.3,0.8-0.2,1.6,0,2.4l8.9,147.9c0.3,6.2,1.8,11.6,4.7,16c2.9,4.5,9,6.7,18.4,6.7l0,2.2l-64.5,0.9
					l0-2.2c8.5-1,14.2-3.6,17.1-7.6c2.9-4.1,4.1-10.3,3.5-18.8l-9-153.1l-0.5,0l-67.9,182.4L985,1477l-0.5,0l-5.3,141.4
					c-0.3,7.8,0.3,13.8,1.7,18c1.4,4.3,3.5,7.3,6.4,9.1c2.9,1.8,7.2,3.1,12.9,4l0,2.2l-50.2,0.7l0-2.2c6.4-0.2,11.3-1.8,14.6-4.8
					c3.3-3,5.4-6.8,6.4-11.3c1-4.5,1.7-10.6,2.1-18.4l6-146.3c0-0.5-0.6-1.5-1.7-2.9c-1.1-1.4-2.5-2.8-4-4.1
					c-1.6-1.4-3.1-2.5-4.6-3.3c-3.1-1.9-5.8-2.9-8-3.2c-2.3-0.3-5.4-0.5-9.5-0.8l0-2.3l46.3-0.6l63.9,162.2l60.5-163.9
					L1163.7,1450.1z"/>
			</g>
			<g>
				<path fill="#FFFFFF" d="M1558.6,1483.6l-2.2,0c-1.2-13-5.1-21.3-11.7-25.1c-6.6-3.7-14.8-5.6-24.4-5.4l-39.6,0.5l2.3,167.4
					c0.2,14.2,7.5,21.4,21.9,21.6l0,2.2l-63.5,0.9l0-2.2c6-0.3,11-2.1,15-5.4c4.1-3.3,6-8.9,5.9-16.8l-2.3-167.4l-39.6,0.5
					c-9.7,0.1-17.7,2.2-24.2,6.1c-6.5,3.9-10.2,12.4-11.1,25.4l-2.2,0l-0.7-48.7l2.2,0c1.5,2.2,2.8,3.9,3.9,5c1.1,1.1,2.5,2,4.2,2.7
					c1.7,0.7,3.7,1.3,6,1.5c2.3,0.3,5,0.4,8.2,0.4l129.1-1.7c8.6-0.1,15.2-3.5,19.9-10.1l2.2,0L1558.6,1483.6z"/>
			</g>
		</g>
	</g>
</g>
<g id="Layer_2">
</g>
<g id="Layer_4" display="none">
</g>
<g id="Layer_5">
	<path id="SVGID_x5F_2_x5F_" fill="none" d="M-1708.4,402.5C-1240.3,177-678,373.6-452.5,841.6s28.9,1030.3-439.2,1255.9
		s-1030.3,28.9-1255.9-439.2S-2176.4,628-1708.4,402.5z"/>
	<text fill="#FFFFFF" font-family="'LucidaBright'" font-size="170">	<textPath  xlink:href="#SVGID_x5F_2_x5F_" startOffset="76.4627%">
International Institute of Management &amp; technology	</textPath>
</text>
</g>
<g id="Layer_6">
	<path id="SVGID_x5F_3_x5F_" fill="none" d="M-1707.5,2952.1c468.3-225.1,1030.4-27.9,1255.4,440.4s27.9,1030.4-440.4,1255.4
		s-1030.4,27.9-1255.4-440.4C-2373,3739.2-2175.8,3177.1-1707.5,2952.1z"/>
	<text fill="#FFFFFF" font-family="'LucidaBright'" font-size="170">	<textPath  xlink:href="#SVGID_x5F_3_x5F_" startOffset="76.4627%">
International Institute of Management &amp; technology	</textPath>
</text>
</g>
</svg>
